HIERARCHY
ROOT Hips
{
  OFFSET -69.4423 88.0299 51.6846
  CHANNELS 6 Xposition Yposition Zposition Zrotation Xrotation Yrotation
  JOINT Spine
  {
    OFFSET 12.0259 -0.162853 1.93176e-005
    CHANNELS 3 Zrotation Xrotation Yrotation
    JOINT Spine1
    {
      OFFSET 15.3169 -0.0121909 0
      CHANNELS 3 Zrotation Xrotation Yrotation
      JOINT Spine2
      {
        OFFSET 15.3176 -0.0121922 0
        CHANNELS 3 Zrotation Xrotation Yrotation
        JOINT Neck
        {
          OFFSET 19.9142 1.56236 0
          CHANNELS 3 Zrotation Xrotation Yrotation
          JOINT Head
          {
            OFFSET 6.92646 0 0
            CHANNELS 3 Zrotation Xrotation Yrotation
            End Site
            {
              OFFSET 20.7666 0 0
            }
          }
          JOINT LeftShoulder
          {
            OFFSET -4.94072 -1.14703 8.14416
            CHANNELS 3 Zrotation Xrotation Yrotation
            JOINT LeftArm
            {
              OFFSET 14.108 0 -2.74767e-005
              CHANNELS 3 Zrotation Xrotation Yrotation
              JOINT LeftForeArm
              {
                OFFSET 28.5802 -0.0783412 -0.0284884
                CHANNELS 3 Zrotation Xrotation Yrotation
                JOINT LeftHand
                {
                  OFFSET 27.092 0 0
                  CHANNELS 3 Zrotation Xrotation Yrotation
                  End Site
                  {
                    OFFSET 9.55928 -0.186424 0.145352
                  }
                }
              }
            }
          }
          JOINT RightShoulder
          {
            OFFSET -7.15748 -1.33027 -6.24935
            CHANNELS 3 Zrotation Xrotation Yrotation
            JOINT RightArm
            {
              OFFSET 14.108 0 1.82997e-005
              CHANNELS 3 Zrotation Xrotation Yrotation
              JOINT RightForeArm
              {
                OFFSET 28.5802 -0.0707221 2.30684e-005
                CHANNELS 3 Zrotation Xrotation Yrotation
                JOINT RightHand
                {
                  OFFSET 27.092 0 -1.30073e-005
                  CHANNELS 3 Zrotation Xrotation Yrotation
                  End Site
                  {
                    OFFSET 9.55929 -0.186417 -0.145354
                  }
                }
              }
            }
          }
        }
      }
    }
  }
  JOINT LeftUpLeg
  {
    OFFSET 0.00499725 -0.534999 8.837
    CHANNELS 3 Zrotation Xrotation Yrotation
    JOINT LeftLeg
    {
      OFFSET 39.9035 -0.00124594 0.000252775
      CHANNELS 3 Zrotation Xrotation Yrotation
      JOINT LeftFoot
      {
        OFFSET 39.6689 0 0
        CHANNELS 3 Zrotation Xrotation Yrotation
        JOINT LeftToe
        {
          OFFSET 10.1624 13.6296 0
          CHANNELS 3 Zrotation Xrotation Yrotation
          End Site
          {
            OFFSET 8.38147 0 0
          }
        }
      }
    }
  }
  JOINT RightUpLeg
  {
    OFFSET 0.00499725 -0.535 -8.837
    CHANNELS 3 Zrotation Xrotation Yrotation
    JOINT RightLeg
    {
      OFFSET 39.9036 -0.000268477 0.000106433
      CHANNELS 3 Zrotation Xrotation Yrotation
      JOINT RightFoot
      {
        OFFSET 39.6689 1.17892e-005 0
        CHANNELS 3 Zrotation Xrotation Yrotation
        JOINT RightToe
        {
          OFFSET 10.1624 13.6296 0
          CHANNELS 3 Zrotation Xrotation Yrotation
          End Site
          {
            OFFSET 8.38147 0 0
          }
        }
      }
    }
  }
}
MOTION
Frames:	8
Frame Time:	0.0333333
17.561 86.4869 39.016 -110.932 62.315 -161.129 6.04047 1.77278 0.958525 12.0596 3.6368 1.72639 12.0595 3.63679 1.72638 -16.6311 -7.32673 -16.5721 35.9584 -8.92654 21.9837 -166.906 -10.2536 -99.3138 -67.1088 -0.271659 77.6337 -52.8914 9.39878 -29.3938 173.79 -83.8653 176.022 -166.854 -13.872 71.2372 -54.033 5.50695 -61.7659 -39.3669 -7.67854 22.6675 3.77175 73.2974 -3.58514 -32.7648 2.30942 -178.127 -34.1621 0.682899 -1.18172 0.0544656 6.67734 0.998073 90 -1.35174e-014 9.54166e-015 -34.6495 -12.7928 168.151 -41.3881 -0.306128 0.163705 0.252389 6.11635 0.687828 90 6.95746e-015 -2.38542e-015 
18.2361 87.2998 40.1394 -108.448 63.009 -163.716 5.4191 1.78545 0.910021 10.8174 3.64919 1.64852 10.8174 3.64919 1.64852 -16.823 -7.55519 -17.0072 36.5145 -8.87295 23.1145 -166.883 -10.7201 -99.7009 -66.4681 -0.00772169 78.635 -53.4521 9.6209 -29.5992 176.054 -80.1624 178.421 -166.895 -14.1742 70.975 -53.5011 2.29915 -65.1936 -43.1445 -9.07372 24.3887 4.14889 75.7542 -4.00378 -28.9747 1.56622 -178.025 -31.399 0.742991 -1.23616 -0.662926 5.72852 0.990635 90 7.95139e-016 1.27222e-014 -30.2771 -11.953 169.496 -38.0175 -0.327613 0.19612 -0.584428 7.37355 1.03661 90 -3.77691e-015 3.57812e-015 
18.9655 87.9332 41.2542 -106.233 63.5586 -165.751 4.62655 1.60437 0.733922 9.23782 3.26322 1.33684 9.2378 3.26321 1.33684 -15.8464 -7.71713 -16.9134 36.6393 -8.36558 24.0016 -167.924 -10.7123 -99.8457 -64.7393 0.990595 80.4071 -54.3479 9.97114 -29.9074 177.214 -75.4487 179.685 -167.955 -13.9911 71.0149 -53.7771 -0.816043 -69.0059 -46.8561 -10.5152 26.0263 5.18136 79.4597 -5.09614 -25.4946 0.801612 -178.284 -28.9167 0.795149 -1.2855 -1.1589 4.79737 0.914734 90 -5.56597e-015 -6.36111e-015 -26.4455 -10.9317 170.314 -35.1457 -0.339075 0.235098 -1.16234 8.49751 1.34992 90 -3.1408e-014 4.77083e-015 
19.778 88.5274 42.5729 -102.634 64.6868 -169.311 4.09051 1.51217 0.624896 8.16865 3.06541 1.141 8.16864 3.0654 1.14098 -15.9841 -7.63485 -16.7111 37.7898 -7.90712 24.1928 -167.767 -10.6833 -99.6961 -63.277 1.78689 81.6223 -55.3415 10.3236 -30.225 178.149 -69.0149 -179.245 -167.807 -13.8183 71.3219 -54.4357 -3.37769 -72.1414 -50.0031 -11.7894 27.3396 6.34271 81.9588 -6.29577 -21.3264 0.204632 -178.12 -26.7904 0.838886 -1.32787 -1.38302 3.64908 0.771829 90 1.59028e-015 3.18055e-015 -21.7966 -9.65969 171.46 -32.1841 -0.353968 0.281604 -1.59713 9.35435 1.59267 90 -8.34896e-015 -9.54166e-015 
20.4033 88.9308 43.7172 -100.294 65.7541 -171.676 3.48345 1.41354 0.517841 6.95723 2.85646 0.949361 6.95722 2.85644 0.949342 -15.2264 -7.73734 -16.4433 37.4574 -7.90121 24.2467 -168.518 -10.5749 -99.6287 -61.8079 2.60586 82.6798 -56.2581 10.7503 -30.546 178.81 -62.0582 -178.305 -168.569 -13.5886 71.5497 -54.9839 -5.387 -75.2152 -52.9831 -13.0367 28.5047 5.59345 81.507 -5.54665 -18.0666 -0.0683597 -177.91 -24.8947 0.860837 -1.37156 -1.59313 2.54765 0.603899 90 -2.46493e-014 -2.8625e-014 -18.3335 -8.19491 172.478 -29.7854 -0.358753 0.32643 -2.26134 10.5698 1.97642 90 -7.55382e-015 -1.63003e-014 
21.0283 89.235 44.7448 -98.3263 66.7064 -173.512 2.94992 1.19916 0.390982 5.89354 2.41734 0.720081 5.89353 2.41733 0.720068 -14.8841 -7.65045 -16.3816 37.2947 -7.55011 24.4086 -168.848 -10.4487 -99.7075 -60.5378 3.50071 83.4253 -57.2773 11.2008 -30.8821 179.03 -57.8717 -177.946 -168.9 -13.3376 71.6371 -56.2697 -7.22562 -77.8366 -56.0868 -14.4089 29.6401 4.93568 80.5276 -4.87677 -15.2278 0.0365804 -177.864 -23.2049 0.876629 -1.4025 -1.49971 1.91722 0.502967 90 2.38542e-015 6.36111e-015 -15.6758 -6.82042 173.014 -28.2177 -0.35927 0.365948 -2.22996 11.3062 2.10966 90 4.37326e-015 -3.97569e-015 
21.7752 89.3802 45.6274 -95.6825 66.9112 -175.583 2.5017 0.833661 0.247512 5.00058 1.67783 0.458618 5.00058 1.67783 0.458601 -14.7675 -7.52131 -16.3293 37.7606 -7.2018 24.3732 -168.944 -10.3308 -99.7552 -60.4591 4.78827 84.3441 -58.5924 11.7018 -31.2662 178.913 -56.1751 -178.031 -168.986 -13.1076 71.7458 -58.0915 -8.5321 -79.1114 -58.3569 -15.4396 30.412 4.53333 79.6566 -4.47506 -12.5438 0.278068 -178.352 -21.683 0.897861 -1.40965 -1.3692 1.98296 0.504788 90 1.59028e-015 1.27222e-014 -13.3795 -6.43133 172.697 -27.4619 -0.357667 0.38733 -1.73876 11.7441 2.08124 90 2.78299e-015 -7.15625e-015 
22.2629 89.4421 46.4146 -93.8063 67.9622 -176.958 2.11072 0.625225 0.0723972 4.22104 1.25317 0.121866 4.22103 1.25318 0.121859 -15.113 -7.24325 -16.2626 38.3346 -6.67573 24.2492 -168.527 -10.1619 -99.724 -60.9845 6.01383 84.5026 -59.8118 12.1609 -31.5875 179.039 -55.0632 -177.91 -168.584 -12.8623 71.9227 -59.5148 -9.31945 -80.5502 -60.9788 -16.6495 31.2207 4.22594 78.7757 -4.16278 -10.355 0.877148 -178.639 -20.6701 0.914581 -1.40547 -1.00541 1.80139 0.472188 90 3.97569e-015 -0 -11.8689 -5.66235 172.38 -26.9976 -0.352034 0.40231 -1.62293 11.5402 2.02596 90 2.38542e-015 5.1684e-015 
